:SAMPLES-PER-SECOND 30
:FULLY-SPECIFIED
:DEGREES
1231
root  53.2009 38.8205 24.258 173.434 37.125 178.534
RightUpLeg  -2.41586 -12.6161 -1.64682
RightLeg  20.6025 0.31498 0.205391
RightFoot  -10.5816 -0.0403021 -4.82902
RightToes  -1.33073e-015 0 -3.6325e-017
Spine  16.7755 -0.777589 8.23348
Spine1  6.67852 0.900878 -2.86538
HEad  -3.5473 -16.5636 -3.21609
LeftShoulder1  0.221977 2.86346 -28.5975
LeftArm  -9.10068 16.9245 -38.9667
LeftForeArm  14.8148 -7.97719 -5.75864
LeftHand  -0.0105927 5.82318 4.08518
RightShoulder  -0.221792 -4.16383 26.0717
RightArm  11.0323 -5.64672 45.2278
RightForeArm  -3.46269 7.46353 6.7368
RightHand  -0.568179 3.96719 -7.30691
LeftUpLeg  -13.7713 3.84575 -0.190463
LeftLeg  3.95263 -0.450213 -1.42781
LeftFoot  1.11319 1.15652 -10.6338
LeftToes  -1.93726e-010 2.42366e-011 2.16268e-013
1232
root  52.4613 39.0492 24.7242 173.521 33.0673 177.705
RightUpLeg  -2.80778 -13.4543 -3.271
RightLeg  18.4122 -2.49006 0.0322915
RightFoot  -8.7413 0.0379483 -4.27234
RightToes  -1.33073e-015 0 -3.6325e-017
Spine  16.7748 -0.546954 8.18321
Spine1  5.62785 1.28626 -3.45196
HEad  -3.37003 -19.7033 -2.66187
LeftShoulder1  0.27978 2.6767 -27.6323
LeftArm  -9.67134 17.4313 -40.3501
LeftForeArm  15.6116 -11.5029 -5.22874
LeftHand  -0.0365278 4.974 3.22021
RightShoulder  -0.220467 -4.16387 25.7878
RightArm  13.4144 -5.65297 43.8244
RightForeArm  -4.15451 9.75686 7.20492
RightHand  -0.649114 4.68368 -7.75448
LeftUpLeg  -13.1668 4.22676 -0.18639
LeftLeg  7.52726 -1.9018 -0.790826
LeftFoot  -0.438671 0.862805 -9.01059
LeftToes  -1.93726e-010 2.42366e-011 2.16268e-013
1233
root  51.7277 39.1828 25.1467 173.988 28.7413 177.263
RightUpLeg  -3.38333 -14.0118 -4.80158
RightLeg  16.8817 -5.90139 -0.0238291
RightFoot  -7.10033 0.0886485 -3.6834
RightToes  -1.33073e-015 0 -3.6325e-017
Spine  16.1425 -0.460817 8.21517
Spine1  5.13987 1.41494 -3.70754
HEad  -3.15862 -22.8473 -2.59946
LeftShoulder1  0.264223 2.74245 -28.5571
LeftArm  -6.65311 17.0335 -39.7335
LeftForeArm  14.3692 -15.7931 -5.05465
LeftHand  -0.0152587 5.83181 3.53126
RightShoulder  -0.113505 -3.84235 24.8294
RightArm  16.4915 -5.88936 42.9287
RightForeArm  -5.45427 12.3816 7.23677
RightHand  -0.732091 5.00206 -8.46243
LeftUpLeg  -12.3781 4.68605 0.691642
LeftLeg  10.5409 -3.14089 -0.617465
LeftFoot  -1.8559 0.668642 -7.91669
LeftToes  -1.93726e-010 2.42366e-011 2.16268e-013
1234
root  51.0148 39.2314 25.5026 174.253 24.8738 177.065
RightUpLeg  -3.75259 -14.3648 -6.19422
RightLeg  16.1655 -9.04696 -0.199075
RightFoot  -6.12573 0.0841217 -2.76261
RightToes  -1.33073e-015 0 -3.6325e-017
Spine  15.3471 -0.176353 8.07731
Spine1  5.26168 1.70594 -3.68082
HEad  -3.1343 -26.0518 -2.61694
LeftShoulder1  0.161733 3.03285 -28.2159
LeftArm  -3.86917 16.2923 -40.4542
LeftForeArm  13.3405 -19.2341 -4.67247
LeftHand  -0.0113472 5.64587 5.41606
RightShoulder  -0.113582 -3.8471 24.3314
RightArm  20.1177 -5.4595 41.7258
RightForeArm  -6.89093 14.6197 7.08979
RightHand  -0.743605 5.13601 -8.489
LeftUpLeg  -10.773 5.31722 2.41494
LeftLeg  12.6919 -2.78313 -0.470543
LeftFoot  -2.68261 0.516405 -6.61403
LeftToes  -1.93726e-010 2.42366e-011 2.16268e-013
1235
root  50.2851 39.2321 25.8017 174.443 20.5367 177.347
RightUpLeg  -3.51479 -15.2913 -7.54596
RightLeg  15.575 -11.9443 -0.160101
RightFoot  -5.43397 0.0458548 -1.59052
RightToes  -1.33073e-015 0 -3.6325e-017
Spine  14.4276 -0.385615 8.53136
Spine1  5.57233 1.70579 -4.28146
HEad  -2.45926 -28.9736 -2.69247
LeftShoulder1  0.175731 2.98693 -27.8654
LeftArm  -4.8766 16.6191 -41.2862
LeftForeArm  16.2643 -23.0502 -4.11291
LeftHand  -0.064818 4.37274 5.0592
RightShoulder  -0.192177 -4.09588 24.7709
RightArm  22.7387 -4.41588 40.2704
RightForeArm  -8.00355 15.5936 7.05875
RightHand  -0.742228 5.40193 -8.27164
LeftUpLeg  -8.94059 4.22065 4.91086
LeftLeg  14.4822 -1.2212 -0.016913
LeftFoot  -3.29819 0.438843 -5.95947
LeftToes  -1.93726e-010 2.42366e-011 2.16268e-013
1236
root  49.5368 39.2061 26.0838 174.262 16.1488 177.728
RightUpLeg  -2.95416 -16.334 -8.91497
RightLeg  15.4894 -14.7165 -0.422304
RightFoot  -4.8123 0.0224303 -0.979692
RightToes  -1.33073e-015 0 -3.6325e-017
Spine  14.1227 -0.510252 8.1402
Spine1  5.51515 1.46654 -3.71638
HEad  -1.59307 -31.7269 -3.16171
LeftShoulder1  0.155516 3.05637 -28.5901
LeftArm  -6.00651 16.3939 -41.2789
LeftForeArm  18.7036 -25.4816 -4.45645
LeftHand  -0.113579 3.29148 5.50395
RightShoulder  -0.166055 -4.0206 24.2743
RightArm  24.6451 -4.09671 39.6346
RightForeArm  -10.2776 16.2395 7.1121
RightHand  -0.823376 5.43216 -9.12044
LeftUpLeg  -6.81304 4.27727 7.66951
LeftLeg  15.6303 -0.553112 0.141664
LeftFoot  -3.45634 0.327423 -4.44873
LeftToes  -1.93726e-010 2.42366e-011 2.16268e-013
1237
root  48.7817 39.1679 26.3443 174.257 11.5373 178.066
RightUpLeg  -2.67648 -17.3731 -10.1844
RightLeg  15.8091 -17.5351 -1.20009
RightFoot  -3.98898 0.00558844 -0.474788
RightToes  -1.33073e-015 0 -3.6325e-017
Spine  14.0019 -0.679295 7.4149
Spine1  4.93204 1.07073 -2.97519
HEad  -0.591401 -34.1022 -4.23087
LeftShoulder1  0.188956 2.959 -28.5083
LeftArm  -6.54026 16.2362 -41.8549
LeftForeArm  20.3579 -27.0965 -4.73596
LeftHand  -0.0832723 3.7204 4.75722
RightShoulder  -0.23645 -4.24713 24.4137
RightArm  24.7455 -3.89432 38.9977
RightForeArm  -10.5163 16.3417 7.07247
RightHand  -0.767346 5.1485 -8.74002
LeftUpLeg  -5.14244 5.67619 10.3313
LeftLeg  16.1669 -1.15814 -0.0577438
LeftFoot  -3.44429 0.197939 -2.57295
LeftToes  -1.93726e-010 2.42366e-011 2.16268e-013
